<?xml version="1.0" encoding="UTF-8"?><svg xmlns="http://www.w3.org/2000/svg" xmlns:xlink="http://www.w3.org/1999/xlink" contentScriptType="text/ecmascript" zoomAndPan="magnify" contentStyleType="text/css" preserveAspectRatio="xMidYMid meet" version="1.0"><g id="scaleSvg" transform="scale(0.35)"><line y2="50" style="stroke:rgb(0,114,178);stroke-width:3" x1="650" x2="750" y1="150"/><circle fill="white" r="6.5" cx="700" cy="100" stroke="rgbrgb(0,114,178)" stroke-width="1"/><text x="696" font-size="10" y="104" text-align="center" fill="black" font-family="Arial">3</text><line y2="50" style="stroke:rgb(0,114,178);stroke-width:3" x1="650" x2="550" y1="150"/><circle fill="white" r="6.5" cx="600" cy="100" stroke="rgbrgb(0,114,178)" stroke-width="1"/><text x="596" font-size="10" y="104" text-align="center" fill="black" font-family="Arial">5</text><line y2="850" style="stroke:rgb(0,158,115);stroke-width:3" x1="250" x2="350" y1="950"/><circle fill="white" r="6.5" cx="300" cy="900" stroke="rgbrgb(0,158,115)" stroke-width="1"/><text x="296" font-size="10" y="904" text-align="center" fill="black" font-family="Arial">9</text><line y2="150" style="stroke:rgb(0,114,178);stroke-width:3" x1="650" x2="650" y1="50"/><circle fill="white" r="6.5" cx="650" cy="100" stroke="rgbrgb(0,114,178)" stroke-width="1"/><text x="646" font-size="10" y="104" text-align="center" fill="black" font-family="Arial">4</text><line y2="50" style="stroke:rgb(0,114,178);stroke-width:3" x1="650" x2="750" y1="50"/><circle fill="white" r="6.5" cx="700" cy="50" stroke="rgbrgb(0,114,178)" stroke-width="1"/><text x="696" font-size="10" y="54" text-align="center" fill="black" font-family="Arial">9</text><line y2="50" style="stroke:rgb(0,114,178);stroke-width:3" x1="650" x2="550" y1="50"/><circle fill="white" r="6.5" cx="600" cy="50" stroke="rgbrgb(0,114,178)" stroke-width="1"/><text x="596" font-size="10" y="54" text-align="center" fill="black" font-family="Arial">1</text><line y2="350" style="stroke:rgb(0,158,115);stroke-width:3" x1="750" x2="750" y1="250"/><circle fill="white" r="6.5" cx="750" cy="300" stroke="rgbrgb(0,158,115)" stroke-width="1"/><text x="746" font-size="10" y="304" text-align="center" fill="black" font-family="Arial">5</text><line y2="950" style="stroke:rgb(0,158,115);stroke-width:3" x1="250" x2="150" y1="950"/><circle fill="white" r="6.5" cx="200" cy="950" stroke="rgbrgb(0,158,115)" stroke-width="1"/><text x="196" font-size="10" y="954" text-align="center" fill="black" font-family="Arial">7</text><line y2="250" style="stroke:rgb(0,158,115);stroke-width:3" x1="950" x2="850" y1="150"/><circle fill="white" r="6.5" cx="900" cy="200" stroke="rgbrgb(0,158,115)" stroke-width="1"/><text x="896" font-size="10" y="204" text-align="center" fill="black" font-family="Arial">7</text><line y2="250" style="stroke:rgb(0,158,115);stroke-width:3" x1="1550" x2="1450" y1="150"/><circle fill="white" r="6.5" cx="1500" cy="200" stroke="rgbrgb(0,158,115)" stroke-width="1"/><text x="1496" font-size="10" y="204" text-align="center" fill="black" font-family="Arial">9</text><line y2="750" style="stroke:rgb(0,114,178);stroke-width:3" x1="1550" x2="1450" y1="850"/><circle fill="white" r="6.5" cx="1500" cy="800" stroke="rgbrgb(0,114,178)" stroke-width="1"/><text x="1496" font-size="10" y="804" text-align="center" fill="black" font-family="Arial">2</text><line y2="950" style="stroke:rgb(0,114,178);stroke-width:3" x1="1550" x2="1450" y1="850"/><circle fill="white" r="6.5" cx="1500" cy="900" stroke="rgbrgb(0,114,178)" stroke-width="1"/><text x="1496" font-size="10" y="904" text-align="center" fill="black" font-family="Arial">2</text><line y2="150" style="stroke:rgb(0,158,115);stroke-width:3" x1="1450" x2="1350" y1="250"/><circle fill="white" r="6.5" cx="1400" cy="200" stroke="rgbrgb(0,158,115)" stroke-width="1"/><text x="1396" font-size="10" y="204" text-align="center" fill="black" font-family="Arial">2</text><line y2="150" style="stroke:rgb(0,158,115);stroke-width:3" x1="1450" x2="1550" y1="150"/><circle fill="white" r="6.5" cx="1500" cy="150" stroke="rgbrgb(0,158,115)" stroke-width="1"/><text x="1496" font-size="10" y="154" text-align="center" fill="black" font-family="Arial">2</text><line y2="250" style="stroke:rgb(0,158,115);stroke-width:3" x1="1450" x2="1450" y1="150"/><circle fill="white" r="6.5" cx="1450" cy="200" stroke="rgbrgb(0,158,115)" stroke-width="1"/><text x="1446" font-size="10" y="204" text-align="center" fill="black" font-family="Arial">4</text><line y2="150" style="stroke:rgb(0,158,115);stroke-width:3" x1="1450" x2="1350" y1="150"/><circle fill="white" r="6.5" cx="1400" cy="150" stroke="rgbrgb(0,158,115)" stroke-width="1"/><text x="1396" font-size="10" y="154" text-align="center" fill="black" font-family="Arial">5</text><line y2="850" style="stroke:rgb(0,114,178);stroke-width:3" x1="1450" x2="1550" y1="850"/><circle fill="white" r="6.5" cx="1500" cy="850" stroke="rgbrgb(0,114,178)" stroke-width="1"/><text x="1496" font-size="10" y="854" text-align="center" fill="black" font-family="Arial">6</text><line y2="750" style="stroke:rgb(0,114,178);stroke-width:3" x1="1450" x2="1450" y1="850"/><circle fill="white" r="6.5" cx="1450" cy="800" stroke="rgbrgb(0,114,178)" stroke-width="1"/><text x="1446" font-size="10" y="804" text-align="center" fill="black" font-family="Arial">2</text><line y2="950" style="stroke:rgb(0,114,178);stroke-width:3" x1="1450" x2="1450" y1="850"/><circle fill="white" r="6.5" cx="1450" cy="900" stroke="rgbrgb(0,114,178)" stroke-width="1"/><text x="1446" font-size="10" y="904" text-align="center" fill="black" font-family="Arial">2</text><line y2="350" style="stroke:rgb(0,158,115);stroke-width:3" x1="850" x2="850" y1="250"/><circle fill="white" r="6.5" cx="850" cy="300" stroke="rgbrgb(0,158,115)" stroke-width="1"/><text x="846" font-size="10" y="304" text-align="center" fill="black" font-family="Arial">5</text><line y2="250" style="stroke:rgb(0,158,115);stroke-width:3" x1="750" x2="850" y1="250"/><circle fill="white" r="6.5" cx="800" cy="250" stroke="rgbrgb(0,158,115)" stroke-width="1"/><text x="796" font-size="10" y="254" text-align="center" fill="black" font-family="Arial">4</text><line y2="350" style="stroke:rgb(0,158,115);stroke-width:3" x1="750" x2="850" y1="350"/><circle fill="white" r="6.5" cx="800" cy="350" stroke="rgbrgb(0,158,115)" stroke-width="1"/><text x="796" font-size="10" y="354" text-align="center" fill="black" font-family="Arial">3</text><circle stroke-width="1" r="13" cx="750" cy="350" stroke="rgb(0,0,0)"/><circle stroke-width="2" r="12" cx="750" cy="350" stroke="rgb(0,158,115)"/><circle fill="rgb(0,158,115)" r="10" cx="750" cy="350" stroke="rgb(0,0,0)" stroke-width="1"/><text x="747" font-size="14" y="353" text-align="center" fill="black" font-family="Arial">6</text><circle stroke-width="1" r="13" cx="1450" cy="150" stroke="rgb(0,0,0)"/><circle stroke-width="2" r="12" cx="1450" cy="150" stroke="rgb(0,158,115)"/><circle fill="rgb(0,158,115)" r="10" cx="1450" cy="150" stroke="rgb(0,0,0)" stroke-width="1"/><text x="1447" font-size="14" y="153" text-align="center" fill="black" font-family="Arial">2</text><rect x="1441" y="160" width="26" style="stroke:rgb(0,0,0);stroke-width:1" rx="6" height="26" ry="6"/><rect x="1442" y="161" width="24" style="stroke:rgb(0,158,115);stroke-width:2" rx="6" height="24" ry="6"/><rect x="1444" y="163" width="20" style="stroke:rgb(0,0,0);stroke-width:1;fill:rgb(0,0,0)" rx="6" height="20" ry="6"/><text x="1445" font-size="14" y="178" text-align="center" fill="rgb(255,255,255)" font-family="Arial">EX</text><circle stroke-width="1" r="13" cx="1350" cy="150" stroke="rgb(0,0,0)"/><circle stroke-width="2" r="12" cx="1350" cy="150" stroke="rgb(0,158,115)"/><circle fill="rgb(0,158,115)" r="10" cx="1350" cy="150" stroke="rgb(0,0,0)" stroke-width="1"/><text x="1347" font-size="14" y="153" text-align="center" fill="black" font-family="Arial">2</text><circle stroke-width="1" r="13" cx="1350" cy="1450" stroke="rgb(0,0,0)"/><circle stroke-width="2" r="12" cx="1350" cy="1450" stroke="rgb(0,114,178)"/><circle fill="rgb(0,114,178)" r="10" cx="1350" cy="1450" stroke="rgb(0,0,0)" stroke-width="1"/><text x="1347" font-size="14" y="1453" text-align="center" fill="black" font-family="Arial">2</text><rect x="1341" y="1460" width="26" style="stroke:rgb(0,0,0);stroke-width:1" rx="6" height="26" ry="6"/><rect x="1342" y="1461" width="24" style="stroke:rgb(0,114,178);stroke-width:2" rx="6" height="24" ry="6"/><rect x="1344" y="1463" width="20" style="stroke:rgb(0,0,0);stroke-width:1;fill:rgb(0,0,0)" rx="6" height="20" ry="6"/><text x="1345" font-size="14" y="1478" text-align="center" fill="rgb(255,255,255)" font-family="Arial">SA</text><circle stroke-width="1" r="13" cx="1450" cy="850" stroke="rgb(0,0,0)"/><circle stroke-width="2" r="12" cx="1450" cy="850" stroke="rgb(0,114,178)"/><circle fill="rgb(0,114,178)" r="10" cx="1450" cy="850" stroke="rgb(0,0,0)" stroke-width="1"/><text x="1447" font-size="14" y="853" text-align="center" fill="black" font-family="Arial">4</text><circle stroke-width="1" r="13" cx="850" cy="250" stroke="rgb(0,0,0)"/><circle stroke-width="2" r="12" cx="850" cy="250" stroke="rgb(0,158,115)"/><circle fill="rgb(0,158,115)" r="10" cx="850" cy="250" stroke="rgb(0,0,0)" stroke-width="1"/><text x="847" font-size="14" y="253" text-align="center" fill="black" font-family="Arial">5</text><circle stroke-width="1" r="13" cx="850" cy="350" stroke="rgb(0,0,0)"/><circle stroke-width="2" r="12" cx="850" cy="350" stroke="rgb(0,158,115)"/><circle fill="rgb(0,158,115)" r="10" cx="850" cy="350" stroke="rgb(0,0,0)" stroke-width="1"/><text x="847" font-size="14" y="353" text-align="center" fill="black" font-family="Arial">6</text><rect x="841" y="360" width="26" style="stroke:rgb(0,0,0);stroke-width:1" rx="6" height="26" ry="6"/><rect x="842" y="361" width="24" style="stroke:rgb(0,158,115);stroke-width:2" rx="6" height="24" ry="6"/><rect x="844" y="363" width="20" style="stroke:rgb(0,0,0);stroke-width:1;fill:rgb(0,0,0)" rx="6" height="20" ry="6"/><text x="845" font-size="14" y="378" text-align="center" fill="rgb(255,255,255)" font-family="Arial">SA</text><rect x="859" y="344" width="26" style="stroke:rgb(0,0,0);stroke-width:1" rx="6" height="26" ry="6"/><rect x="860" y="345" width="24" style="stroke:rgb(0,158,115);stroke-width:2" rx="6" height="24" ry="6"/><rect x="862" y="347" width="20" style="stroke:rgb(0,0,0);stroke-width:1;fill:rgb(0,0,0)" rx="6" height="20" ry="6"/><text x="863" font-size="14" y="362" text-align="center" fill="rgb(255,255,255)" font-family="Arial">SE</text><circle stroke-width="1" r="13" cx="1450" cy="750" stroke="rgb(0,0,0)"/><circle stroke-width="2" r="12" cx="1450" cy="750" stroke="rgb(0,114,178)"/><circle fill="rgb(0,114,178)" r="10" cx="1450" cy="750" stroke="rgb(0,0,0)" stroke-width="1"/><text x="1447" font-size="14" y="753" text-align="center" fill="black" font-family="Arial">4</text><rect x="1441" y="760" width="26" style="stroke:rgb(0,0,0);stroke-width:1" rx="6" height="26" ry="6"/><rect x="1442" y="761" width="24" style="stroke:rgb(0,114,178);stroke-width:2" rx="6" height="24" ry="6"/><rect x="1444" y="763" width="20" style="stroke:rgb(0,0,0);stroke-width:1;fill:rgb(0,0,0)" rx="6" height="20" ry="6"/><text x="1445" font-size="14" y="778" text-align="center" fill="rgb(255,255,255)" font-family="Arial">IN</text><circle stroke-width="1" r="13" cx="750" cy="250" stroke="rgb(0,0,0)"/><circle stroke-width="2" r="12" cx="750" cy="250" stroke="rgb(0,158,115)"/><circle fill="rgb(0,158,115)" r="10" cx="750" cy="250" stroke="rgb(0,0,0)" stroke-width="1"/><text x="747" font-size="14" y="253" text-align="center" fill="black" font-family="Arial">5</text><rect x="741" y="260" width="26" style="stroke:rgb(0,0,0);stroke-width:1" rx="6" height="26" ry="6"/><rect x="742" y="261" width="24" style="stroke:rgb(0,158,115);stroke-width:2" rx="6" height="24" ry="6"/><rect x="744" y="263" width="20" style="stroke:rgb(0,0,0);stroke-width:1;fill:rgb(0,0,0)" rx="6" height="20" ry="6"/><text x="745" font-size="14" y="278" text-align="center" fill="rgb(255,255,255)" font-family="Arial">IN</text><circle stroke-width="1" r="13" cx="350" cy="850" stroke="rgb(0,0,0)"/><circle stroke-width="2" r="12" cx="350" cy="850" stroke="rgb(0,158,115)"/><circle fill="rgb(0,158,115)" r="10" cx="350" cy="850" stroke="rgb(0,0,0)" stroke-width="1"/><text x="347" font-size="14" y="853" text-align="center" fill="black" font-family="Arial">6</text><rect x="341" y="860" width="26" style="stroke:rgb(0,0,0);stroke-width:1" rx="6" height="26" ry="6"/><rect x="342" y="861" width="24" style="stroke:rgb(0,158,115);stroke-width:2" rx="6" height="24" ry="6"/><rect x="344" y="863" width="20" style="stroke:rgb(0,0,0);stroke-width:1;fill:rgb(0,0,0)" rx="6" height="20" ry="6"/><text x="345" font-size="14" y="878" text-align="center" fill="rgb(255,255,255)" font-family="Arial">EX</text><circle stroke-width="1" r="13" cx="1450" cy="250" stroke="rgb(0,0,0)"/><circle stroke-width="2" r="12" cx="1450" cy="250" stroke="rgb(0,158,115)"/><circle fill="rgb(0,158,115)" r="10" cx="1450" cy="250" stroke="rgb(0,0,0)" stroke-width="1"/><text x="1447" font-size="14" y="253" text-align="center" fill="black" font-family="Arial">2</text><rect x="1441" y="260" width="26" style="stroke:rgb(0,0,0);stroke-width:1" rx="6" height="26" ry="6"/><rect x="1442" y="261" width="24" style="stroke:rgb(0,158,115);stroke-width:2" rx="6" height="24" ry="6"/><rect x="1444" y="263" width="20" style="stroke:rgb(0,0,0);stroke-width:1;fill:rgb(0,0,0)" rx="6" height="20" ry="6"/><text x="1445" font-size="14" y="278" text-align="center" fill="rgb(255,255,255)" font-family="Arial">RE</text><circle stroke-width="1" r="13" cx="150" cy="1550" stroke="rgb(0,0,0)"/><circle stroke-width="2" r="12" cx="150" cy="1550" stroke="rgb(0,114,178)"/><circle fill="rgb(0,114,178)" r="10" cx="150" cy="1550" stroke="rgb(0,0,0)" stroke-width="1"/><text x="147" font-size="14" y="1553" text-align="center" fill="black" font-family="Arial">1</text><rect x="141" y="1560" width="26" style="stroke:rgb(0,0,0);stroke-width:1" rx="6" height="26" ry="6"/><rect x="142" y="1561" width="24" style="stroke:rgb(0,114,178);stroke-width:2" rx="6" height="24" ry="6"/><rect x="144" y="1563" width="20" style="stroke:rgb(0,0,0);stroke-width:1;fill:rgb(0,0,0)" rx="6" height="20" ry="6"/><text x="145" font-size="14" y="1578" text-align="center" fill="rgb(255,255,255)" font-family="Arial">SE</text><circle stroke-width="1" r="13" cx="550" cy="50" stroke="rgb(0,0,0)"/><circle stroke-width="2" r="12" cx="550" cy="50" stroke="rgb(0,114,178)"/><circle fill="rgb(0,114,178)" r="10" cx="550" cy="50" stroke="rgb(0,0,0)" stroke-width="1"/><text x="547" font-size="14" y="53" text-align="center" fill="black" font-family="Arial">3</text><circle stroke-width="1" r="13" cx="1550" cy="150" stroke="rgb(0,0,0)"/><circle stroke-width="2" r="12" cx="1550" cy="150" stroke="rgb(0,158,115)"/><circle fill="rgb(0,158,115)" r="10" cx="1550" cy="150" stroke="rgb(0,0,0)" stroke-width="1"/><text x="1547" font-size="14" y="153" text-align="center" fill="black" font-family="Arial">1</text><circle stroke-width="1" r="13" cx="150" cy="250" stroke="rgb(0,0,0)"/><circle stroke-width="2" r="12" cx="150" cy="250" stroke="rgb(0,114,178)"/><circle fill="rgb(0,114,178)" r="10" cx="150" cy="250" stroke="rgb(0,0,0)" stroke-width="1"/><text x="147" font-size="14" y="253" text-align="center" fill="black" font-family="Arial">2</text><rect x="141" y="260" width="26" style="stroke:rgb(0,0,0);stroke-width:1" rx="6" height="26" ry="6"/><rect x="142" y="261" width="24" style="stroke:rgb(0,114,178);stroke-width:2" rx="6" height="24" ry="6"/><rect x="144" y="263" width="20" style="stroke:rgb(0,0,0);stroke-width:1;fill:rgb(0,0,0)" rx="6" height="20" ry="6"/><text x="145" font-size="14" y="278" text-align="center" fill="rgb(255,255,255)" font-family="Arial">RE</text><rect x="159" y="244" width="26" style="stroke:rgb(0,0,0);stroke-width:1" rx="6" height="26" ry="6"/><rect x="160" y="245" width="24" style="stroke:rgb(0,114,178);stroke-width:2" rx="6" height="24" ry="6"/><rect x="162" y="247" width="20" style="stroke:rgb(0,0,0);stroke-width:1;fill:rgb(0,0,0)" rx="6" height="20" ry="6"/><text x="163" font-size="14" y="262" text-align="center" fill="rgb(255,255,255)" font-family="Arial">EX</text><rect x="1241" y="1560" width="26" style="stroke:rgb(0,0,0);stroke-width:1" rx="6" height="26" ry="6"/><rect x="1242" y="1561" width="24" style="stroke:rgb(0,158,115);stroke-width:2" rx="6" height="24" ry="6"/><rect x="1244" y="1563" width="20" style="stroke:rgb(120,120,120);stroke-width:1;fill:rgb(120,120,120)" rx="6" height="20" ry="6"/><text x="1245" font-size="14" y="1578" text-align="center" fill="rgb(255,255,255)" font-family="Arial">SE</text><circle stroke-width="1" r="13" cx="750" cy="50" stroke="rgb(0,0,0)"/><circle stroke-width="2" r="12" cx="750" cy="50" stroke="rgb(0,114,178)"/><circle fill="rgb(0,114,178)" r="10" cx="750" cy="50" stroke="rgb(0,0,0)" stroke-width="1"/><text x="747" font-size="14" y="53" text-align="center" fill="black" font-family="Arial">3</text><circle stroke-width="1" r="13" cx="950" cy="250" stroke="rgb(0,0,0)"/><circle stroke-width="2" r="12" cx="950" cy="250" stroke="rgb(0,114,178)"/><circle fill="rgb(0,114,178)" r="10" cx="950" cy="250" stroke="rgb(0,0,0)" stroke-width="1"/><text x="947" font-size="14" y="253" text-align="center" fill="black" font-family="Arial">5</text><rect x="941" y="260" width="26" style="stroke:rgb(0,0,0);stroke-width:1" rx="6" height="26" ry="6"/><rect x="942" y="261" width="24" style="stroke:rgb(0,114,178);stroke-width:2" rx="6" height="24" ry="6"/><rect x="944" y="263" width="20" style="stroke:rgb(0,0,0);stroke-width:1;fill:rgb(0,0,0)" rx="6" height="20" ry="6"/><text x="945" font-size="14" y="278" text-align="center" fill="rgb(255,255,255)" font-family="Arial">IN</text><circle stroke-width="1" r="13" cx="1550" cy="850" stroke="rgb(0,0,0)"/><circle stroke-width="2" r="12" cx="1550" cy="850" stroke="rgb(0,114,178)"/><circle fill="rgb(0,114,178)" r="10" cx="1550" cy="850" stroke="rgb(0,0,0)" stroke-width="1"/><text x="1547" font-size="14" y="853" text-align="center" fill="black" font-family="Arial">3</text><circle stroke-width="1" r="13" cx="150" cy="950" stroke="rgb(0,0,0)"/><circle stroke-width="2" r="12" cx="150" cy="950" stroke="rgb(0,158,115)"/><circle fill="rgb(0,158,115)" r="10" cx="150" cy="950" stroke="rgb(0,0,0)" stroke-width="1"/><text x="147" font-size="14" y="953" text-align="center" fill="black" font-family="Arial">4</text><rect x="141" y="960" width="26" style="stroke:rgb(0,0,0);stroke-width:1" rx="6" height="26" ry="6"/><rect x="142" y="961" width="24" style="stroke:rgb(0,158,115);stroke-width:2" rx="6" height="24" ry="6"/><rect x="144" y="963" width="20" style="stroke:rgb(0,0,0);stroke-width:1;fill:rgb(0,0,0)" rx="6" height="20" ry="6"/><text x="145" font-size="14" y="978" text-align="center" fill="rgb(255,255,255)" font-family="Arial">IN</text><circle stroke-width="1" r="13" cx="250" cy="1450" stroke="rgb(0,0,0)"/><circle stroke-width="2" r="12" cx="250" cy="1450" stroke="rgb(0,158,115)"/><circle fill="rgb(0,158,115)" r="10" cx="250" cy="1450" stroke="rgb(0,0,0)" stroke-width="1"/><text x="247" font-size="14" y="1453" text-align="center" fill="black" font-family="Arial">2</text><rect x="241" y="1460" width="26" style="stroke:rgb(0,0,0);stroke-width:1" rx="6" height="26" ry="6"/><rect x="242" y="1461" width="24" style="stroke:rgb(0,158,115);stroke-width:2" rx="6" height="24" ry="6"/><rect x="244" y="1463" width="20" style="stroke:rgb(0,0,0);stroke-width:1;fill:rgb(0,0,0)" rx="6" height="20" ry="6"/><text x="245" font-size="14" y="1478" text-align="center" fill="rgb(255,255,255)" font-family="Arial">SA</text><circle stroke-width="1" r="13" cx="250" cy="950" stroke="rgb(0,0,0)"/><circle stroke-width="2" r="12" cx="250" cy="950" stroke="rgb(0,158,115)"/><circle fill="rgb(0,158,115)" r="10" cx="250" cy="950" stroke="rgb(0,0,0)" stroke-width="1"/><text x="247" font-size="14" y="953" text-align="center" fill="black" font-family="Arial">5</text><circle stroke-width="1" r="13" cx="650" cy="650" stroke="rgb(0,0,0)"/><circle stroke-width="2" r="12" cx="650" cy="650" stroke="rgb(0,114,178)"/><circle fill="rgb(0,114,178)" r="10" cx="650" cy="650" stroke="rgb(0,0,0)" stroke-width="1"/><text x="647" font-size="14" y="653" text-align="center" fill="black" font-family="Arial">8</text><rect x="641" y="660" width="26" style="stroke:rgb(0,0,0);stroke-width:1" rx="6" height="26" ry="6"/><rect x="642" y="661" width="24" style="stroke:rgb(0,114,178);stroke-width:2" rx="6" height="24" ry="6"/><rect x="644" y="663" width="20" style="stroke:rgb(0,0,0);stroke-width:1;fill:rgb(0,0,0)" rx="6" height="20" ry="6"/><text x="645" font-size="14" y="678" text-align="center" fill="rgb(255,255,255)" font-family="Arial">SA</text><circle stroke-width="1" r="13" cx="650" cy="150" stroke="rgb(0,0,0)"/><circle stroke-width="2" r="12" cx="650" cy="150" stroke="rgb(0,114,178)"/><circle fill="rgb(0,114,178)" r="10" cx="650" cy="150" stroke="rgb(0,0,0)" stroke-width="1"/><text x="647" font-size="14" y="153" text-align="center" fill="black" font-family="Arial">4</text><rect x="641" y="160" width="26" style="stroke:rgb(0,0,0);stroke-width:1" rx="6" height="26" ry="6"/><rect x="642" y="161" width="24" style="stroke:rgb(0,114,178);stroke-width:2" rx="6" height="24" ry="6"/><rect x="644" y="163" width="20" style="stroke:rgb(0,0,0);stroke-width:1;fill:rgb(0,0,0)" rx="6" height="20" ry="6"/><text x="645" font-size="14" y="178" text-align="center" fill="rgb(255,255,255)" font-family="Arial">RE</text><circle stroke-width="1" r="13" cx="1450" cy="950" stroke="rgb(0,0,0)"/><circle stroke-width="2" r="12" cx="1450" cy="950" stroke="rgb(0,114,178)"/><circle fill="rgb(0,114,178)" r="10" cx="1450" cy="950" stroke="rgb(0,0,0)" stroke-width="1"/><text x="1447" font-size="14" y="953" text-align="center" fill="black" font-family="Arial">4</text><rect x="1441" y="960" width="26" style="stroke:rgb(0,0,0);stroke-width:1" rx="6" height="26" ry="6"/><rect x="1442" y="961" width="24" style="stroke:rgb(0,114,178);stroke-width:2" rx="6" height="24" ry="6"/><rect x="1444" y="963" width="20" style="stroke:rgb(0,0,0);stroke-width:1;fill:rgb(0,0,0)" rx="6" height="20" ry="6"/><text x="1445" font-size="14" y="978" text-align="center" fill="rgb(255,255,255)" font-family="Arial">EX</text><circle stroke-width="1" r="13" cx="950" cy="150" stroke="rgb(0,0,0)"/><circle stroke-width="2" r="12" cx="950" cy="150" stroke="rgb(0,158,115)"/><circle fill="rgb(0,158,115)" r="10" cx="950" cy="150" stroke="rgb(0,0,0)" stroke-width="1"/><text x="947" font-size="14" y="153" text-align="center" fill="black" font-family="Arial">4</text><rect x="941" y="160" width="26" style="stroke:rgb(0,0,0);stroke-width:1" rx="6" height="26" ry="6"/><rect x="942" y="161" width="24" style="stroke:rgb(0,158,115);stroke-width:2" rx="6" height="24" ry="6"/><rect x="944" y="163" width="20" style="stroke:rgb(0,0,0);stroke-width:1;fill:rgb(0,0,0)" rx="6" height="20" ry="6"/><text x="945" font-size="14" y="178" text-align="center" fill="rgb(255,255,255)" font-family="Arial">RE</text><circle stroke-width="1" r="13" cx="650" cy="50" stroke="rgb(0,0,0)"/><circle stroke-width="2" r="12" cx="650" cy="50" stroke="rgb(0,114,178)"/><circle fill="rgb(0,114,178)" r="10" cx="650" cy="50" stroke="rgb(0,0,0)" stroke-width="1"/><text x="647" font-size="14" y="53" text-align="center" fill="black" font-family="Arial">3</text><rect x="641" y="60" width="26" style="stroke:rgb(0,0,0);stroke-width:1" rx="6" height="26" ry="6"/><rect x="642" y="61" width="24" style="stroke:rgb(0,114,178);stroke-width:2" rx="6" height="24" ry="6"/><rect x="644" y="63" width="20" style="stroke:rgb(0,0,0);stroke-width:1;fill:rgb(0,0,0)" rx="6" height="20" ry="6"/><text x="645" font-size="14" y="78" text-align="center" fill="rgb(255,255,255)" font-family="Arial">SE</text><g id="teamTable" transform="translate(0, 150)"><text fill="black" x="1750" font-size="18px" y="45" font-weight="bold">Current Step: 4</text><text x="1750" font-size="18px" y="80" text-anchor="middle" fill="black" font-weight="bold"><tspan x="1950">Total Score</tspan><tspan x="2150">Step Score</tspan><tspan x="2350">Zone Value</tspan><tspan x="2550">Achievement Pts</tspan></text><text x="1750" font-size="18px" y="100" text-anchor="start" fill="black" font-weight="bold"><tspan fill="rgb(0,158,115)" x="1750">A</tspan><tspan x="1950">72</tspan><tspan x="2150">18</tspan><tspan x="2350">12</tspan><tspan x="2550">6</tspan></text><text x="1750" font-size="18px" y="120" text-anchor="start" fill="black" font-weight="bold"><tspan fill="rgb(0,114,178)" x="1750">B</tspan><tspan x="1950">60</tspan><tspan x="2150">15</tspan><tspan x="2350">13</tspan><tspan x="2550">2</tspan></text></g><g id="agentTable" transform="translate(0, 150)"><text x="1750" font-size="18px" y="160" text-anchor="middle" fill="black" font-weight="bold"><tspan x="1880">Role</tspan><tspan x="2010">Curr Energy</tspan><tspan x="2140">Max Energy</tspan><tspan x="2270">Curr Health</tspan><tspan x="2400">Max Health</tspan><tspan x="2530">Strength</tspan><tspan x="2660">Vis Range</tspan></text><text x="1750" font-size="18px" y="190" text-anchor="start" fill="black" font-weight="bold"><tspan fill="rgb(0,158,115)" x="1750">a1</tspan><tspan x="1880">Explorer</tspan><tspan x="2010">13</tspan><tspan x="2140">24</tspan><tspan x="2270">4</tspan><tspan x="2400">4</tspan><tspan x="2530">0</tspan><tspan x="2660">2</tspan></text><text x="1750" font-size="18px" y="220" text-anchor="start" fill="black" font-weight="bold"><tspan fill="rgb(0,158,115)" x="1750">a2</tspan><tspan x="1880">Explorer</tspan><tspan x="2010">13</tspan><tspan x="2140">24</tspan><tspan x="2270">4</tspan><tspan x="2400">4</tspan><tspan x="2530">0</tspan><tspan x="2660">2</tspan></text><text x="1750" font-size="18px" y="250" text-anchor="start" fill="black" font-weight="bold"><tspan fill="rgb(0,158,115)" x="1750">a3</tspan><tspan x="1880">Repairer</tspan><tspan x="2010">16</tspan><tspan x="2140">16</tspan><tspan x="2270">6</tspan><tspan x="2400">6</tspan><tspan x="2530">0</tspan><tspan x="2660">1</tspan></text><text x="1750" font-size="18px" y="280" text-anchor="start" fill="black" font-weight="bold"><tspan fill="rgb(0,158,115)" x="1750">a4</tspan><tspan x="1880">Repairer</tspan><tspan x="2010">16</tspan><tspan x="2140">16</tspan><tspan x="2270">6</tspan><tspan x="2400">6</tspan><tspan x="2530">0</tspan><tspan x="2660">1</tspan></text><text x="1750" font-size="18px" y="310" text-anchor="start" fill="black" font-weight="bold"><tspan fill="rgb(0,158,115)" x="1750">a5</tspan><tspan x="1880">Saboteur</tspan><tspan x="2010">7</tspan><tspan x="2140">14</tspan><tspan x="2270">3</tspan><tspan x="2400">3</tspan><tspan x="2530">3</tspan><tspan x="2660">1</tspan></text><text x="1750" font-size="18px" y="340" text-anchor="start" fill="black" font-weight="bold"><tspan fill="rgb(0,158,115)" x="1750">a6</tspan><tspan x="1880">Saboteur</tspan><tspan x="2010">4</tspan><tspan x="2140">14</tspan><tspan x="2270">3</tspan><tspan x="2400">3</tspan><tspan x="2530">3</tspan><tspan x="2660">1</tspan></text><text x="1750" font-size="18px" y="370" text-anchor="start" fill="black" font-weight="bold"><tspan fill="rgb(0,158,115)" x="1750">a7</tspan><tspan x="1880">Sentinel</tspan><tspan x="2010">10</tspan><tspan x="2140">20</tspan><tspan x="2270">0</tspan><tspan x="2400">1</tspan><tspan x="2530">0</tspan><tspan x="2660">3</tspan></text><text x="1750" font-size="18px" y="400" text-anchor="start" fill="black" font-weight="bold"><tspan fill="rgb(0,158,115)" x="1750">a8</tspan><tspan x="1880">Sentinel</tspan><tspan x="2010">16</tspan><tspan x="2140">20</tspan><tspan x="2270">1</tspan><tspan x="2400">1</tspan><tspan x="2530">0</tspan><tspan x="2660">3</tspan></text><text x="1750" font-size="18px" y="430" text-anchor="start" fill="black" font-weight="bold"><tspan fill="rgb(0,158,115)" x="1750">a9</tspan><tspan x="1880">Inspector</tspan><tspan x="2010">12</tspan><tspan x="2140">16</tspan><tspan x="2270">6</tspan><tspan x="2400">6</tspan><tspan x="2530">0</tspan><tspan x="2660">1</tspan></text><text x="1750" font-size="18px" y="460" text-anchor="start" fill="black" font-weight="bold"><tspan fill="rgb(0,158,115)" x="1750">a10</tspan><tspan x="1880">Inspector</tspan><tspan x="2010">3</tspan><tspan x="2140">16</tspan><tspan x="2270">6</tspan><tspan x="2400">6</tspan><tspan x="2530">0</tspan><tspan x="2660">1</tspan></text><text x="1750" font-size="18px" y="490" text-anchor="start" fill="black" font-weight="bold"><tspan fill="rgb(0,114,178)" x="1750">b1</tspan><tspan x="1880">Explorer</tspan><tspan x="2010">14</tspan><tspan x="2140">24</tspan><tspan x="2270">4</tspan><tspan x="2400">4</tspan><tspan x="2530">0</tspan><tspan x="2660">2</tspan></text><text x="1750" font-size="18px" y="520" text-anchor="start" fill="black" font-weight="bold"><tspan fill="rgb(0,114,178)" x="1750">b2</tspan><tspan x="1880">Explorer</tspan><tspan x="2010">6</tspan><tspan x="2140">24</tspan><tspan x="2270">4</tspan><tspan x="2400">4</tspan><tspan x="2530">0</tspan><tspan x="2660">2</tspan></text><text x="1750" font-size="18px" y="550" text-anchor="start" fill="black" font-weight="bold"><tspan fill="rgb(0,114,178)" x="1750">b3</tspan><tspan x="1880">Repairer</tspan><tspan x="2010">16</tspan><tspan x="2140">16</tspan><tspan x="2270">6</tspan><tspan x="2400">6</tspan><tspan x="2530">0</tspan><tspan x="2660">1</tspan></text><text x="1750" font-size="18px" y="580" text-anchor="start" fill="black" font-weight="bold"><tspan fill="rgb(0,114,178)" x="1750">b4</tspan><tspan x="1880">Repairer</tspan><tspan x="2010">16</tspan><tspan x="2140">16</tspan><tspan x="2270">6</tspan><tspan x="2400">6</tspan><tspan x="2530">0</tspan><tspan x="2660">1</tspan></text><text x="1750" font-size="18px" y="610" text-anchor="start" fill="black" font-weight="bold"><tspan fill="rgb(0,114,178)" x="1750">b5</tspan><tspan x="1880">Saboteur</tspan><tspan x="2010">8</tspan><tspan x="2140">14</tspan><tspan x="2270">3</tspan><tspan x="2400">3</tspan><tspan x="2530">3</tspan><tspan x="2660">1</tspan></text><text x="1750" font-size="18px" y="640" text-anchor="start" fill="black" font-weight="bold"><tspan fill="rgb(0,114,178)" x="1750">b6</tspan><tspan x="1880">Saboteur</tspan><tspan x="2010">4</tspan><tspan x="2140">14</tspan><tspan x="2270">3</tspan><tspan x="2400">3</tspan><tspan x="2530">3</tspan><tspan x="2660">1</tspan></text><text x="1750" font-size="18px" y="670" text-anchor="start" fill="black" font-weight="bold"><tspan fill="rgb(0,114,178)" x="1750">b7</tspan><tspan x="1880">Sentinel</tspan><tspan x="2010">11</tspan><tspan x="2140">20</tspan><tspan x="2270">1</tspan><tspan x="2400">1</tspan><tspan x="2530">0</tspan><tspan x="2660">3</tspan></text><text x="1750" font-size="18px" y="700" text-anchor="start" fill="black" font-weight="bold"><tspan fill="rgb(0,114,178)" x="1750">b8</tspan><tspan x="1880">Sentinel</tspan><tspan x="2010">3</tspan><tspan x="2140">20</tspan><tspan x="2270">1</tspan><tspan x="2400">1</tspan><tspan x="2530">0</tspan><tspan x="2660">3</tspan></text><text x="1750" font-size="18px" y="730" text-anchor="start" fill="black" font-weight="bold"><tspan fill="rgb(0,114,178)" x="1750">b9</tspan><tspan x="1880">Inspector</tspan><tspan x="2010">12</tspan><tspan x="2140">16</tspan><tspan x="2270">6</tspan><tspan x="2400">6</tspan><tspan x="2530">0</tspan><tspan x="2660">1</tspan></text><text x="1750" font-size="18px" y="760" text-anchor="start" fill="black" font-weight="bold"><tspan fill="rgb(0,114,178)" x="1750">b10</tspan><tspan x="1880">Inspector</tspan><tspan x="2010">4</tspan><tspan x="2140">16</tspan><tspan x="2270">6</tspan><tspan x="2400">6</tspan><tspan x="2530">0</tspan><tspan x="2660">1</tspan></text></g><g id="achievementPart" transform="translate(0, 150)"><text x="1750" font-size="18px" y="805" text-anchor="start" fill="black" font-weight="bold"><tspan x="1750">Achievements</tspan><tspan fill="rgb(0,158,115)" x="1750" y="835">A</tspan><tspan x="1750" y="855">surveyed10</tspan><tspan x="1750" y="875">surveyed20</tspan><tspan x="1750" y="895">area10</tspan><tspan fill="rgb(0,114,178)" x="2250" y="835">B</tspan><tspan x="2250" y="855">surveyed10</tspan></text></g></g></svg>