<?xml version="1.0" encoding="UTF-8"?><svg xmlns="http://www.w3.org/2000/svg" xmlns:xlink="http://www.w3.org/1999/xlink" contentScriptType="text/ecmascript" zoomAndPan="magnify" contentStyleType="text/css" preserveAspectRatio="xMidYMid meet" version="1.0"><g id="scaleSvg" transform="scale(0.35)"><rect x="1141" y="260" width="26" style="stroke:rgb(0,0,0);stroke-width:1" rx="6" height="26" ry="6"/><rect x="1142" y="261" width="24" style="stroke:rgb(0,114,178);stroke-width:2" rx="6" height="24" ry="6"/><rect x="1144" y="263" width="20" style="stroke:rgb(0,0,0);stroke-width:1;fill:rgb(0,0,0)" rx="6" height="20" ry="6"/><text x="1145" font-size="14" y="278" text-align="center" fill="rgb(255,255,255)" font-family="Arial">IN</text><rect x="141" y="860" width="26" style="stroke:rgb(0,0,0);stroke-width:1" rx="6" height="26" ry="6"/><rect x="142" y="861" width="24" style="stroke:rgb(0,158,115);stroke-width:2" rx="6" height="24" ry="6"/><rect x="144" y="863" width="20" style="stroke:rgb(0,0,0);stroke-width:1;fill:rgb(0,0,0)" rx="6" height="20" ry="6"/><text x="145" font-size="14" y="878" text-align="center" fill="rgb(255,255,255)" font-family="Arial">EX</text><rect x="341" y="1560" width="26" style="stroke:rgb(0,0,0);stroke-width:1" rx="6" height="26" ry="6"/><rect x="342" y="1561" width="24" style="stroke:rgb(0,114,178);stroke-width:2" rx="6" height="24" ry="6"/><rect x="344" y="1563" width="20" style="stroke:rgb(0,0,0);stroke-width:1;fill:rgb(0,0,0)" rx="6" height="20" ry="6"/><text x="345" font-size="14" y="1578" text-align="center" fill="rgb(255,255,255)" font-family="Arial">SE</text><rect x="1441" y="860" width="26" style="stroke:rgb(0,0,0);stroke-width:1" rx="6" height="26" ry="6"/><rect x="1442" y="861" width="24" style="stroke:rgb(0,114,178);stroke-width:2" rx="6" height="24" ry="6"/><rect x="1444" y="863" width="20" style="stroke:rgb(0,0,0);stroke-width:1;fill:rgb(0,0,0)" rx="6" height="20" ry="6"/><text x="1445" font-size="14" y="878" text-align="center" fill="rgb(255,255,255)" font-family="Arial">EX</text><rect x="641" y="560" width="26" style="stroke:rgb(0,0,0);stroke-width:1" rx="6" height="26" ry="6"/><rect x="642" y="561" width="24" style="stroke:rgb(0,114,178);stroke-width:2" rx="6" height="24" ry="6"/><rect x="644" y="563" width="20" style="stroke:rgb(0,0,0);stroke-width:1;fill:rgb(0,0,0)" rx="6" height="20" ry="6"/><text x="645" font-size="14" y="578" text-align="center" fill="rgb(255,255,255)" font-family="Arial">SA</text><rect x="841" y="260" width="26" style="stroke:rgb(0,0,0);stroke-width:1" rx="6" height="26" ry="6"/><rect x="842" y="261" width="24" style="stroke:rgb(0,158,115);stroke-width:2" rx="6" height="24" ry="6"/><rect x="844" y="263" width="20" style="stroke:rgb(0,0,0);stroke-width:1;fill:rgb(0,0,0)" rx="6" height="20" ry="6"/><text x="845" font-size="14" y="278" text-align="center" fill="rgb(255,255,255)" font-family="Arial">SE</text><rect x="1341" y="1560" width="26" style="stroke:rgb(0,0,0);stroke-width:1" rx="6" height="26" ry="6"/><rect x="1342" y="1561" width="24" style="stroke:rgb(0,114,178);stroke-width:2" rx="6" height="24" ry="6"/><rect x="1344" y="1563" width="20" style="stroke:rgb(0,0,0);stroke-width:1;fill:rgb(0,0,0)" rx="6" height="20" ry="6"/><text x="1345" font-size="14" y="1578" text-align="center" fill="rgb(255,255,255)" font-family="Arial">SA</text><rect x="741" y="260" width="26" style="stroke:rgb(0,0,0);stroke-width:1" rx="6" height="26" ry="6"/><rect x="742" y="261" width="24" style="stroke:rgb(0,114,178);stroke-width:2" rx="6" height="24" ry="6"/><rect x="744" y="263" width="20" style="stroke:rgb(0,0,0);stroke-width:1;fill:rgb(0,0,0)" rx="6" height="20" ry="6"/><text x="745" font-size="14" y="278" text-align="center" fill="rgb(255,255,255)" font-family="Arial">SE</text><rect x="1541" y="360" width="26" style="stroke:rgb(0,0,0);stroke-width:1" rx="6" height="26" ry="6"/><rect x="1542" y="361" width="24" style="stroke:rgb(0,158,115);stroke-width:2" rx="6" height="24" ry="6"/><rect x="1544" y="363" width="20" style="stroke:rgb(0,0,0);stroke-width:1;fill:rgb(0,0,0)" rx="6" height="20" ry="6"/><text x="1545" font-size="14" y="378" text-align="center" fill="rgb(255,255,255)" font-family="Arial">EX</text><rect x="441" y="260" width="26" style="stroke:rgb(0,0,0);stroke-width:1" rx="6" height="26" ry="6"/><rect x="442" y="261" width="24" style="stroke:rgb(0,158,115);stroke-width:2" rx="6" height="24" ry="6"/><rect x="444" y="263" width="20" style="stroke:rgb(0,0,0);stroke-width:1;fill:rgb(0,0,0)" rx="6" height="20" ry="6"/><text x="445" font-size="14" y="278" text-align="center" fill="rgb(255,255,255)" font-family="Arial">IN</text><rect x="1441" y="260" width="26" style="stroke:rgb(0,0,0);stroke-width:1" rx="6" height="26" ry="6"/><rect x="1442" y="261" width="24" style="stroke:rgb(0,158,115);stroke-width:2" rx="6" height="24" ry="6"/><rect x="1444" y="263" width="20" style="stroke:rgb(0,0,0);stroke-width:1;fill:rgb(0,0,0)" rx="6" height="20" ry="6"/><text x="1445" font-size="14" y="278" text-align="center" fill="rgb(255,255,255)" font-family="Arial">RE</text><rect x="141" y="260" width="26" style="stroke:rgb(0,0,0);stroke-width:1" rx="6" height="26" ry="6"/><rect x="142" y="261" width="24" style="stroke:rgb(0,114,178);stroke-width:2" rx="6" height="24" ry="6"/><rect x="144" y="263" width="20" style="stroke:rgb(0,0,0);stroke-width:1;fill:rgb(0,0,0)" rx="6" height="20" ry="6"/><text x="145" font-size="14" y="278" text-align="center" fill="rgb(255,255,255)" font-family="Arial">RE</text><rect x="1241" y="1560" width="26" style="stroke:rgb(0,0,0);stroke-width:1" rx="6" height="26" ry="6"/><rect x="1242" y="1561" width="24" style="stroke:rgb(0,158,115);stroke-width:2" rx="6" height="24" ry="6"/><rect x="1244" y="1563" width="20" style="stroke:rgb(0,0,0);stroke-width:1;fill:rgb(0,0,0)" rx="6" height="20" ry="6"/><text x="1245" font-size="14" y="1578" text-align="center" fill="rgb(255,255,255)" font-family="Arial">SE</text><rect x="941" y="560" width="26" style="stroke:rgb(0,0,0);stroke-width:1" rx="6" height="26" ry="6"/><rect x="942" y="561" width="24" style="stroke:rgb(0,158,115);stroke-width:2" rx="6" height="24" ry="6"/><rect x="944" y="563" width="20" style="stroke:rgb(0,0,0);stroke-width:1;fill:rgb(0,0,0)" rx="6" height="20" ry="6"/><text x="945" font-size="14" y="578" text-align="center" fill="rgb(255,255,255)" font-family="Arial">SA</text><rect x="241" y="960" width="26" style="stroke:rgb(0,0,0);stroke-width:1" rx="6" height="26" ry="6"/><rect x="242" y="961" width="24" style="stroke:rgb(0,158,115);stroke-width:2" rx="6" height="24" ry="6"/><rect x="244" y="963" width="20" style="stroke:rgb(0,0,0);stroke-width:1;fill:rgb(0,0,0)" rx="6" height="20" ry="6"/><text x="245" font-size="14" y="978" text-align="center" fill="rgb(255,255,255)" font-family="Arial">IN</text><rect x="1341" y="960" width="26" style="stroke:rgb(0,0,0);stroke-width:1" rx="6" height="26" ry="6"/><rect x="1342" y="961" width="24" style="stroke:rgb(0,114,178);stroke-width:2" rx="6" height="24" ry="6"/><rect x="1344" y="963" width="20" style="stroke:rgb(0,0,0);stroke-width:1;fill:rgb(0,0,0)" rx="6" height="20" ry="6"/><text x="1345" font-size="14" y="978" text-align="center" fill="rgb(255,255,255)" font-family="Arial">IN</text><rect x="641" y="160" width="26" style="stroke:rgb(0,0,0);stroke-width:1" rx="6" height="26" ry="6"/><rect x="642" y="161" width="24" style="stroke:rgb(0,114,178);stroke-width:2" rx="6" height="24" ry="6"/><rect x="644" y="163" width="20" style="stroke:rgb(0,0,0);stroke-width:1;fill:rgb(0,0,0)" rx="6" height="20" ry="6"/><text x="645" font-size="14" y="178" text-align="center" fill="rgb(255,255,255)" font-family="Arial">RE</text><rect x="941" y="160" width="26" style="stroke:rgb(0,0,0);stroke-width:1" rx="6" height="26" ry="6"/><rect x="942" y="161" width="24" style="stroke:rgb(0,158,115);stroke-width:2" rx="6" height="24" ry="6"/><rect x="944" y="163" width="20" style="stroke:rgb(0,0,0);stroke-width:1;fill:rgb(0,0,0)" rx="6" height="20" ry="6"/><text x="945" font-size="14" y="178" text-align="center" fill="rgb(255,255,255)" font-family="Arial">RE</text><rect x="241" y="1560" width="26" style="stroke:rgb(0,0,0);stroke-width:1" rx="6" height="26" ry="6"/><rect x="242" y="1561" width="24" style="stroke:rgb(0,158,115);stroke-width:2" rx="6" height="24" ry="6"/><rect x="244" y="1563" width="20" style="stroke:rgb(0,0,0);stroke-width:1;fill:rgb(0,0,0)" rx="6" height="20" ry="6"/><text x="245" font-size="14" y="1578" text-align="center" fill="rgb(255,255,255)" font-family="Arial">SA</text><rect x="41" y="360" width="26" style="stroke:rgb(0,0,0);stroke-width:1" rx="6" height="26" ry="6"/><rect x="42" y="361" width="24" style="stroke:rgb(0,114,178);stroke-width:2" rx="6" height="24" ry="6"/><rect x="44" y="363" width="20" style="stroke:rgb(0,0,0);stroke-width:1;fill:rgb(0,0,0)" rx="6" height="20" ry="6"/><text x="45" font-size="14" y="378" text-align="center" fill="rgb(255,255,255)" font-family="Arial">EX</text><g id="teamTable" transform="translate(0, 150)"><text fill="black" x="1750" font-size="18px" y="45" font-weight="bold">Current Step: 0</text><text x="1750" font-size="18px" y="80" text-anchor="middle" fill="black" font-weight="bold"><tspan x="1950">Total Score</tspan><tspan x="2150">Step Score</tspan><tspan x="2350">Zone Value</tspan><tspan x="2550">Achievement Pts</tspan></text><text x="1750" font-size="18px" y="100" text-anchor="start" fill="black" font-weight="bold"><tspan fill="rgb(0,158,115)" x="1750">A</tspan><tspan x="1950">0</tspan><tspan x="2150">0</tspan><tspan x="2350">0</tspan><tspan x="2550">0</tspan></text><text x="1750" font-size="18px" y="120" text-anchor="start" fill="black" font-weight="bold"><tspan fill="rgb(0,114,178)" x="1750">B</tspan><tspan x="1950">0</tspan><tspan x="2150">0</tspan><tspan x="2350">0</tspan><tspan x="2550">0</tspan></text></g><g id="agentTable" transform="translate(0, 150)"><text x="1750" font-size="18px" y="160" text-anchor="middle" fill="black" font-weight="bold"><tspan x="1880">Role</tspan><tspan x="2010">Curr Energy</tspan><tspan x="2140">Max Energy</tspan><tspan x="2270">Curr Health</tspan><tspan x="2400">Max Health</tspan><tspan x="2530">Strength</tspan><tspan x="2660">Vis Range</tspan></text><text x="1750" font-size="18px" y="190" text-anchor="start" fill="black" font-weight="bold"><tspan fill="rgb(0,158,115)" x="1750">a1</tspan><tspan x="1880">Explorer</tspan><tspan x="2010">24</tspan><tspan x="2140">24</tspan><tspan x="2270">4</tspan><tspan x="2400">4</tspan><tspan x="2530">0</tspan><tspan x="2660">2</tspan></text><text x="1750" font-size="18px" y="220" text-anchor="start" fill="black" font-weight="bold"><tspan fill="rgb(0,158,115)" x="1750">a2</tspan><tspan x="1880">Explorer</tspan><tspan x="2010">24</tspan><tspan x="2140">24</tspan><tspan x="2270">4</tspan><tspan x="2400">4</tspan><tspan x="2530">0</tspan><tspan x="2660">2</tspan></text><text x="1750" font-size="18px" y="250" text-anchor="start" fill="black" font-weight="bold"><tspan fill="rgb(0,158,115)" x="1750">a3</tspan><tspan x="1880">Repairer</tspan><tspan x="2010">16</tspan><tspan x="2140">16</tspan><tspan x="2270">6</tspan><tspan x="2400">6</tspan><tspan x="2530">0</tspan><tspan x="2660">1</tspan></text><text x="1750" font-size="18px" y="280" text-anchor="start" fill="black" font-weight="bold"><tspan fill="rgb(0,158,115)" x="1750">a4</tspan><tspan x="1880">Repairer</tspan><tspan x="2010">16</tspan><tspan x="2140">16</tspan><tspan x="2270">6</tspan><tspan x="2400">6</tspan><tspan x="2530">0</tspan><tspan x="2660">1</tspan></text><text x="1750" font-size="18px" y="310" text-anchor="start" fill="black" font-weight="bold"><tspan fill="rgb(0,158,115)" x="1750">a5</tspan><tspan x="1880">Saboteur</tspan><tspan x="2010">14</tspan><tspan x="2140">14</tspan><tspan x="2270">3</tspan><tspan x="2400">3</tspan><tspan x="2530">3</tspan><tspan x="2660">1</tspan></text><text x="1750" font-size="18px" y="340" text-anchor="start" fill="black" font-weight="bold"><tspan fill="rgb(0,158,115)" x="1750">a6</tspan><tspan x="1880">Saboteur</tspan><tspan x="2010">14</tspan><tspan x="2140">14</tspan><tspan x="2270">3</tspan><tspan x="2400">3</tspan><tspan x="2530">3</tspan><tspan x="2660">1</tspan></text><text x="1750" font-size="18px" y="370" text-anchor="start" fill="black" font-weight="bold"><tspan fill="rgb(0,158,115)" x="1750">a7</tspan><tspan x="1880">Sentinel</tspan><tspan x="2010">20</tspan><tspan x="2140">20</tspan><tspan x="2270">1</tspan><tspan x="2400">1</tspan><tspan x="2530">0</tspan><tspan x="2660">3</tspan></text><text x="1750" font-size="18px" y="400" text-anchor="start" fill="black" font-weight="bold"><tspan fill="rgb(0,158,115)" x="1750">a8</tspan><tspan x="1880">Sentinel</tspan><tspan x="2010">20</tspan><tspan x="2140">20</tspan><tspan x="2270">1</tspan><tspan x="2400">1</tspan><tspan x="2530">0</tspan><tspan x="2660">3</tspan></text><text x="1750" font-size="18px" y="430" text-anchor="start" fill="black" font-weight="bold"><tspan fill="rgb(0,158,115)" x="1750">a9</tspan><tspan x="1880">Inspector</tspan><tspan x="2010">16</tspan><tspan x="2140">16</tspan><tspan x="2270">6</tspan><tspan x="2400">6</tspan><tspan x="2530">0</tspan><tspan x="2660">1</tspan></text><text x="1750" font-size="18px" y="460" text-anchor="start" fill="black" font-weight="bold"><tspan fill="rgb(0,158,115)" x="1750">a10</tspan><tspan x="1880">Inspector</tspan><tspan x="2010">16</tspan><tspan x="2140">16</tspan><tspan x="2270">6</tspan><tspan x="2400">6</tspan><tspan x="2530">0</tspan><tspan x="2660">1</tspan></text><text x="1750" font-size="18px" y="490" text-anchor="start" fill="black" font-weight="bold"><tspan fill="rgb(0,114,178)" x="1750">b1</tspan><tspan x="1880">Explorer</tspan><tspan x="2010">24</tspan><tspan x="2140">24</tspan><tspan x="2270">4</tspan><tspan x="2400">4</tspan><tspan x="2530">0</tspan><tspan x="2660">2</tspan></text><text x="1750" font-size="18px" y="520" text-anchor="start" fill="black" font-weight="bold"><tspan fill="rgb(0,114,178)" x="1750">b2</tspan><tspan x="1880">Explorer</tspan><tspan x="2010">24</tspan><tspan x="2140">24</tspan><tspan x="2270">4</tspan><tspan x="2400">4</tspan><tspan x="2530">0</tspan><tspan x="2660">2</tspan></text><text x="1750" font-size="18px" y="550" text-anchor="start" fill="black" font-weight="bold"><tspan fill="rgb(0,114,178)" x="1750">b3</tspan><tspan x="1880">Repairer</tspan><tspan x="2010">16</tspan><tspan x="2140">16</tspan><tspan x="2270">6</tspan><tspan x="2400">6</tspan><tspan x="2530">0</tspan><tspan x="2660">1</tspan></text><text x="1750" font-size="18px" y="580" text-anchor="start" fill="black" font-weight="bold"><tspan fill="rgb(0,114,178)" x="1750">b4</tspan><tspan x="1880">Repairer</tspan><tspan x="2010">16</tspan><tspan x="2140">16</tspan><tspan x="2270">6</tspan><tspan x="2400">6</tspan><tspan x="2530">0</tspan><tspan x="2660">1</tspan></text><text x="1750" font-size="18px" y="610" text-anchor="start" fill="black" font-weight="bold"><tspan fill="rgb(0,114,178)" x="1750">b5</tspan><tspan x="1880">Saboteur</tspan><tspan x="2010">14</tspan><tspan x="2140">14</tspan><tspan x="2270">3</tspan><tspan x="2400">3</tspan><tspan x="2530">3</tspan><tspan x="2660">1</tspan></text><text x="1750" font-size="18px" y="640" text-anchor="start" fill="black" font-weight="bold"><tspan fill="rgb(0,114,178)" x="1750">b6</tspan><tspan x="1880">Saboteur</tspan><tspan x="2010">14</tspan><tspan x="2140">14</tspan><tspan x="2270">3</tspan><tspan x="2400">3</tspan><tspan x="2530">3</tspan><tspan x="2660">1</tspan></text><text x="1750" font-size="18px" y="670" text-anchor="start" fill="black" font-weight="bold"><tspan fill="rgb(0,114,178)" x="1750">b7</tspan><tspan x="1880">Sentinel</tspan><tspan x="2010">20</tspan><tspan x="2140">20</tspan><tspan x="2270">1</tspan><tspan x="2400">1</tspan><tspan x="2530">0</tspan><tspan x="2660">3</tspan></text><text x="1750" font-size="18px" y="700" text-anchor="start" fill="black" font-weight="bold"><tspan fill="rgb(0,114,178)" x="1750">b8</tspan><tspan x="1880">Sentinel</tspan><tspan x="2010">20</tspan><tspan x="2140">20</tspan><tspan x="2270">1</tspan><tspan x="2400">1</tspan><tspan x="2530">0</tspan><tspan x="2660">3</tspan></text><text x="1750" font-size="18px" y="730" text-anchor="start" fill="black" font-weight="bold"><tspan fill="rgb(0,114,178)" x="1750">b9</tspan><tspan x="1880">Inspector</tspan><tspan x="2010">16</tspan><tspan x="2140">16</tspan><tspan x="2270">6</tspan><tspan x="2400">6</tspan><tspan x="2530">0</tspan><tspan x="2660">1</tspan></text><text x="1750" font-size="18px" y="760" text-anchor="start" fill="black" font-weight="bold"><tspan fill="rgb(0,114,178)" x="1750">b10</tspan><tspan x="1880">Inspector</tspan><tspan x="2010">16</tspan><tspan x="2140">16</tspan><tspan x="2270">6</tspan><tspan x="2400">6</tspan><tspan x="2530">0</tspan><tspan x="2660">1</tspan></text></g><g id="achievementPart" transform="translate(0, 150)"><text x="1750" font-size="18px" y="805" text-anchor="start" fill="black" font-weight="bold"><tspan x="1750">Achievements</tspan><tspan fill="rgb(0,158,115)" x="1750" y="835">A</tspan><tspan fill="rgb(0,114,178)" x="2250" y="835">B</tspan></text></g></g></svg>